
<svg xmlns="http://www.w3.org/2000/svg" width="32" height="32" viewBox="0 0 32 32" role="img" aria-label="Fluent-style calendar widget icon">
  <defs>
    <linearGradient id="bg" x1="0" y1="0" x2="1" y2="1">
      <stop offset="0%" stop-color="#F7FAFF"/>
      <stop offset="100%" stop-color="#E8F0FE"/>
    </linearGradient>
    <linearGradient id="top" x1="0" y1="0" x2="1" y2="0">
      <stop offset="0%" stop-color="#4F8CFF"/>
      <stop offset="100%" stop-color="#2563EB"/>
    </linearGradient>
    <filter id="shadow" x="-20%" y="-20%" width="140%" height="140%">
      <feDropShadow dx="0" dy="1" stdDeviation="1" flood-color="#000000" flood-opacity="0.12"/>
    </filter>
  </defs>

  <g filter="url(#shadow)">
    <rect x="4" y="5" width="24" height="23" rx="6" fill="url(#bg)"/>
    <path d="M10 4.5C10.55 4.5 11 4.95 11 5.5V8C11 8.55 10.55 9 10 9C9.45 9 9 8.55 9 8V5.5C9 4.95 9.45 4.5 10 4.5Z" fill="#2563EB"/>
    <path d="M22 4.5C22.55 4.5 23 4.95 23 5.5V8C23 8.55 22.55 9 22 9C21.45 9 21 8.55 21 8V5.5C21 4.95 21.45 4.5 22 4.5Z" fill="#2563EB"/>
    <rect x="4" y="7" width="24" height="6" rx="6" fill="url(#top)"/>
    <rect x="7.5" y="15.5" width="17" height="9" rx="4" fill="#FFFFFF" fill-opacity="0.88"/>
    <text x="16" y="23" text-anchor="middle" font-family="Segoe UI, Arial, sans-serif" font-size="10.5" font-weight="600" fill="#1F1F1F">9</text>
  </g>
</svg>
